<svg width="15" height="20" viewBox="0 0 15 20" fill="none" xmlns="http://www.w3.org/2000/svg">
<path d="M12 1.25C12.3978 1.25 12.7794 1.3817 13.0607 1.61612C13.342 1.85054 13.5 2.16848 13.5 2.5V17.5C13.5 17.8315 13.342 18.1495 13.0607 18.3839C12.7794 18.6183 12.3978 18.75 12 18.75H3C2.60218 18.75 2.22064 18.6183 1.93934 18.3839C1.65804 18.1495 1.5 17.8315 1.5 17.5V2.5C1.5 2.16848 1.65804 1.85054 1.93934 1.61612C2.22064 1.3817 2.60218 1.25 3 1.25H12ZM3 0C2.20435 0 1.44129 0.263392 0.87868 0.732233C0.31607 1.20107 0 1.83696 0 2.5V17.5C0 18.163 0.31607 18.7989 0.87868 19.2678C1.44129 19.7366 2.20435 20 3 20H12C12.7956 20 13.5587 19.7366 14.1213 19.2678C14.6839 18.7989 15 18.163 15 17.5V2.5C15 1.83696 14.6839 1.20107 14.1213 0.732233C13.5587 0.263392 12.7956 0 12 0L3 0Z" fill="black"/>
<path d="M7.5 17.5C7.89782 17.5 8.27936 17.3683 8.56066 17.1339C8.84196 16.8995 9 16.5815 9 16.25C9 15.9185 8.84196 15.6005 8.56066 15.3661C8.27936 15.1317 7.89782 15 7.5 15C7.10218 15 6.72064 15.1317 6.43934 15.3661C6.15804 15.6005 6 15.9185 6 16.25C6 16.5815 6.15804 16.8995 6.43934 17.1339C6.72064 17.3683 7.10218 17.5 7.5 17.5Z" fill="black"/>
</svg>
