<svg width="20" height="20" viewBox="0 0 20 20" fill="none" xmlns="http://www.w3.org/2000/svg">
<path fill-rule="evenodd" clip-rule="evenodd" d="M8.6614 0H11.3395C11.4447 0 11.5265 1.11759e-07 11.6047 0.00487816C12.088 0.0356925 12.553 0.209738 12.9458 0.506786C13.3385 0.803834 13.6428 1.21168 13.8233 1.68293C13.853 1.75805 13.8791 1.83902 13.9116 1.94439L13.9414 2.03902L13.9693 2.12195C14.134 2.6 14.5395 2.93171 14.9628 2.97561L15.0558 2.98146C16.6158 3.07805 17.8149 3.35024 18.706 4.2839C19.4019 5.01463 19.7107 5.94049 19.8577 7.0839C20 8.1961 20 9.61561 20 11.4088V11.518C20 13.3112 20 14.7317 19.8577 15.8429C19.7107 16.9863 19.4019 17.9122 18.706 18.6429C18.0093 19.3727 17.1265 19.6966 16.0363 19.8507C14.9758 20 13.6223 20 11.9126 20H8.08744C6.37767 20 5.02326 20 3.96372 19.8507C2.87349 19.6966 1.9907 19.3727 1.29395 18.6429C0.59814 17.9122 0.289302 16.9863 0.142326 15.8429C0 14.7307 0 13.3112 0 11.518V11.4088C0 9.61561 0 8.19512 0.142326 7.0839C0.289302 5.94049 0.59814 5.01463 1.29395 4.2839C2.18512 3.35024 3.38512 3.07805 4.94419 2.98146L5.03721 2.97561C5.46047 2.93268 5.86698 2.6 6.03256 2.12195L6.0586 2.03902L6.08837 1.94439C6.12186 1.84 6.14791 1.75805 6.17674 1.68195C6.35735 1.21089 6.6617 0.803244 7.05442 0.506378C7.44715 0.209511 7.91213 0.0356095 8.39535 0.00487816C8.47349 1.11759e-07 8.55535 0 8.6614 0ZM5.01488 4.44293C5.05705 4.44163 5.09829 4.43902 5.1386 4.43512C5.9507 4.39024 6.92744 4.39024 8.13954 4.39024H11.8605C13.0726 4.39024 14.0493 4.39024 14.8614 4.43512C14.9023 4.43902 14.9433 4.44163 14.9842 4.44293C16.4763 4.53561 17.2149 4.79024 17.7191 5.31902C17.906 5.51589 18.0565 5.74746 18.1628 6.00195C16.4633 7.15902 15.346 7.90439 14.4065 8.39805C14.3743 8.21869 14.2792 8.05845 14.1401 7.94877C14.001 7.8391 13.8278 7.78792 13.6546 7.80527C13.4814 7.82262 13.3205 7.90725 13.2037 8.04256C13.0869 8.17786 13.0226 8.35406 13.0233 8.53659V8.98342C11.0512 9.60781 8.94884 9.60781 6.97674 8.98342V8.53659C6.97744 8.35406 6.91307 8.17786 6.79626 8.04256C6.67945 7.90725 6.51864 7.82262 6.3454 7.80527C6.17215 7.78792 5.99898 7.8391 5.85986 7.94877C5.72075 8.05845 5.62574 8.21869 5.59349 8.39805C4.65395 7.90537 3.53767 7.15902 1.83721 6.00098C1.94353 5.74649 2.09398 5.51492 2.28093 5.31805C2.78512 4.79024 3.52372 4.53561 5.01581 4.44293M1.49953 7.51512C1.39721 8.48683 1.39628 9.74537 1.39628 11.4634C1.39628 13.3239 1.39814 14.6459 1.52651 15.6488C1.65209 16.6293 1.88837 17.1951 2.28186 17.6078C2.67535 18.0205 3.21488 18.2683 4.1507 18.4C5.10698 18.5346 6.36651 18.5366 8.14047 18.5366H11.8614C13.6353 18.5366 14.8958 18.5346 15.8521 18.4C16.787 18.2683 17.3265 18.0205 17.72 17.6078C18.1135 17.1951 18.3498 16.6293 18.4753 15.6478C18.6037 14.6459 18.6056 13.3239 18.6056 11.4634C18.6056 9.74634 18.6047 8.48781 18.5033 7.51512C16.7479 8.70829 15.5442 9.49756 14.4195 10.0049V10.4878C14.4215 10.6819 14.3499 10.8688 14.2205 11.0075C14.091 11.1462 13.9143 11.2252 13.7293 11.2273C13.5443 11.2294 13.366 11.1543 13.2338 11.0185C13.1016 10.8828 13.0262 10.6975 13.0242 10.5034C11.0425 11.0513 8.95933 11.0513 6.97767 10.5034C6.9757 10.6976 6.90025 10.883 6.76793 11.0189C6.63561 11.1547 6.45725 11.2299 6.27209 11.2278C6.08693 11.2257 5.91014 11.1466 5.78061 11.0078C5.65108 10.8691 5.57942 10.682 5.5814 10.4878V10.0049C4.45767 9.49756 3.25302 8.70732 1.49767 7.51512M12.7823 2.9278L11.8791 2.92683H7.21767C7.28178 2.79221 7.3359 2.65261 7.37953 2.50927L7.38233 2.50146L7.40651 2.42634C7.42652 2.35973 7.44824 2.29369 7.47163 2.22829C7.55363 2.01407 7.69192 1.82866 7.87042 1.6936C8.04892 1.55855 8.2603 1.4794 8.48 1.46537C8.50977 1.46341 8.54698 1.46341 8.68 1.46341H11.32C11.453 1.46341 11.4902 1.46341 11.52 1.46537C11.9684 1.49463 12.3609 1.79122 12.5293 2.22829C12.5405 2.25756 12.5516 2.29366 12.5944 2.42634L12.6205 2.50927M12.6567 2.61951C12.6927 2.72553 12.734 2.82829 12.7823 2.9278L12.6567 2.61951Z" fill="black"/>
</svg>
