<svg width="20" height="17" viewBox="0 0 20 17" fill="none" xmlns="http://www.w3.org/2000/svg">
<path fill-rule="evenodd" clip-rule="evenodd" d="M2.2 1.275L9.76 7.29937C9.82924 7.35455 9.91345 7.38437 10 7.38437C10.0865 7.38437 10.1708 7.35455 10.24 7.29937L17.8 1.275H2.2ZM18.8 2.07187L10.96 8.31937C10.683 8.54007 10.3462 8.65937 10 8.65937C9.65381 8.65937 9.31695 8.54007 9.04 8.31937L1.2 2.07187V15.725H18.8V2.07187ZM1 0H19C19.2652 0 19.5196 0.111942 19.7071 0.311199C19.8946 0.510457 20 0.780707 20 1.0625V15.9375C20 16.2193 19.8946 16.4895 19.7071 16.6888C19.5196 16.8881 19.2652 17 19 17H1C0.734784 17 0.48043 16.8881 0.292893 16.6888C0.105357 16.4895 0 16.2193 0 15.9375V1.0625C0 0.780707 0.105357 0.510457 0.292893 0.311199C0.48043 0.111942 0.734784 0 1 0Z" fill="black"/>
</svg>
