<svg width="20" height="20" viewBox="0 0 20 20" fill="none" xmlns="http://www.w3.org/2000/svg">
<path fill-rule="evenodd" clip-rule="evenodd" d="M6.64001 2.73701C7.69332 2.25061 8.83982 1.99913 10 2.00001C11.4057 1.99977 12.7866 2.36993 14.0038 3.0732C15.2209 3.77648 16.2312 4.78803 16.933 6.00601H16.195C15.545 6.00601 15.018 6.25601 15.018 6.90601C15.018 7.23601 15.018 8.94601 12.992 8.91401C11.02 8.91401 11.02 7.18201 11.02 6.90601C11.02 5.47701 10.233 5.25601 9.26801 4.98301C8.89401 4.87801 8.49401 4.76501 8.10201 4.57201C7.09801 4.07501 6.75401 3.38901 6.64001 2.73701ZM4.00001 2.00001C2.83817 2.87484 1.87897 3.99026 1.18801 5.27001C0.406155 6.72387 -0.00208219 8.34926 7.98602e-06 10C7.98602e-06 15.289 4.10601 19.619 9.30401 19.976L9.35801 19.98C9.74255 20.0046 10.1282 20.0069 10.513 19.987H10.515C11.0191 19.9616 11.5205 19.8981 12.015 19.797C12.7954 19.6366 13.5537 19.3834 14.274 19.043C16.5339 17.9711 18.3123 16.0943 19.261 13.78C19.7524 12.5805 20.0035 11.2962 20 10C20.0008 9.15673 19.895 8.31673 19.685 7.50001C19.1307 5.35303 17.8784 3.45118 16.1253 2.09354C14.3721 0.735888 12.2174 -0.000554627 10 8.93448e-06C7.83584 -0.00288887 5.72961 0.699188 4.00001 2.00001ZM17.372 13.113C17.1288 13.0392 16.8761 13.0015 16.622 13.001H16.405C15.5021 13.001 14.6362 13.3596 13.9977 13.998C13.3591 14.6363 13.0003 15.5021 13 16.405V17.419C14.9701 16.6188 16.5424 15.0709 17.372 13.113ZM10.114 18H10C8.59073 18.0002 7.20642 17.6281 5.98717 16.9213C4.76792 16.2146 3.75699 15.1983 3.05671 13.9753C2.35642 12.7524 1.99161 11.3661 1.99922 9.95684C2.00682 8.54759 2.38656 7.16535 3.10001 5.95001C4.05001 6.49101 4.52101 7.48701 4.93501 8.36501C5.14401 8.80601 5.33801 9.21801 5.57201 9.52701C6.11201 10.239 6.63501 10.546 7.16301 10.855C7.68301 11.16 8.21001 11.468 8.76301 12.171C10.203 13.996 10.182 16.537 10.113 17.999L10.114 18Z" fill="black"/>
</svg>
