<svg width="22" height="22" viewBox="0 0 22 22" fill="none" xmlns="http://www.w3.org/2000/svg">
<path d="M1 10.4C1 9.242 1.242 9 2.4 9H19.6C20.758 9 21 9.242 21 10.4V11.6C21 12.758 20.758 13 19.6 13H2.4C1.242 13 1 12.758 1 11.6V10.4ZM1 2.4C1 1.242 1.242 1 2.4 1H19.6C20.758 1 21 1.242 21 2.4V3.6C21 4.758 20.758 5 19.6 5H2.4C1.242 5 1 4.758 1 3.6V2.4ZM1 18.4C1 17.242 1.242 17 2.4 17H19.6C20.758 17 21 17.242 21 18.4V19.6C21 20.758 20.758 21 19.6 21H2.4C1.242 21 1 20.758 1 19.6V18.4Z" stroke="black" stroke-width="1.5" stroke-linecap="round" stroke-linejoin="round"/>
</svg>
