<svg class="business-menu__business-logo-svg" width="72" height="40" viewBox="0 0 72 40" fill="none" xmlns="http://www.w3.org/2000/svg">
											<path class="blue" d="M70.8537 10.7002H67.3342L64.4569 15.5781L61.5797 10.7002H58.0602L62.6943 18.5637L57.248 27.7947H60.7762L64.4569 21.5494L68.1377 27.7947H71.663L66.2167 18.5637L70.8537 10.7002Z" fill="white"></path>
											<path class="blue" d="M55.2169 30.1073H59.0129L58.9841 30.1364C53.6299 35.7432 47.4982 40.0118 43.1377 40.0001C41.9281 39.9943 40.8509 39.659 39.9639 38.9271C37.8729 37.2011 38.2588 33.9676 39.3417 30.1073C39.3475 30.0956 39.3475 30.0839 39.3533 30.0723L42.4868 30.1073C41.3492 33.3641 40.8221 35.8774 41.7985 36.685C43.4027 38.0087 49.1859 35.8161 55.2082 30.1189L55.2198 30.1073H55.2169Z" fill="white"></path>
											<path class="dark" d="M42.4869 30.1073H39.3418C39.3418 30.1073 39.3476 30.0839 39.3533 30.0723L42.4869 30.1073Z" fill="white"></path>
											<path class="blue" d="M71.5129 8.38838H68.4628C69.252 5.85758 69.4881 3.99448 68.6644 3.31513C67.0602 1.99142 61.277 4.17816 55.2547 9.87537L52.3832 12.8931H48.6621L51.476 9.8637C56.8301 4.25689 62.9618 -0.0116388 67.3223 2.38412e-05C68.5319 0.00585516 69.6091 0.341157 70.4962 1.06716C72.3078 2.56581 72.2617 5.19864 71.51 8.38838H71.5129Z" fill="white"></path>
											<path class="dark" d="M3.44748 10.8643H0V27.8013H10.7658V24.9965H3.44748V10.8643Z" fill="white"></path>
											<path class="dark" d="M17.8796 14.9805C16.7449 14.9805 15.7368 15.2487 14.8526 15.7881C13.9685 16.3275 13.283 17.0943 12.802 18.0915C12.3181 19.0886 12.0791 20.2199 12.0791 21.4824V21.8089C12.0791 23.6925 12.6522 25.2028 13.7956 26.3341C14.9419 27.4653 16.4252 28.031 18.2483 28.031C19.2822 28.031 20.224 27.8298 21.0737 27.4333C21.9233 27.0338 22.5972 26.4769 23.0955 25.7626L21.4625 23.9141C20.7425 24.8529 19.7431 25.3223 18.4643 25.3223C17.6377 25.3223 16.9522 25.0745 16.4137 24.5788C15.8751 24.0832 15.5496 23.4242 15.4431 22.602H23.3605V21.2287C23.3605 19.2344 22.8709 17.6979 21.8945 16.6103C20.9181 15.5257 19.5789 14.9805 17.8796 14.9805ZM20.0973 20.3074H15.4776C15.5928 19.4648 15.8549 18.8204 16.2639 18.3685C16.6729 17.9165 17.2086 17.692 17.8681 17.692C18.5737 17.692 19.1181 17.8961 19.5011 18.3043C19.8842 18.7125 20.0829 19.2927 20.0973 20.0391V20.3074Z" fill="white"></path>
											<path class="dark" d="M29.7492 23.6926L27.4393 15.2139H23.9717L28.1651 27.8008H31.3361L35.5295 15.2139H32.059L29.7492 23.6926Z" fill="white"></path>
											<path class="dark" d="M45.3871 27.4333C46.2368 27.0338 46.9107 26.4769 47.409 25.7626L45.776 23.9141C45.0559 24.8529 44.0565 25.3223 42.7778 25.3223C41.9512 25.3223 41.2657 25.0745 40.7271 24.5788C40.1886 24.0832 39.8631 23.4242 39.7565 22.602H47.6739V21.2287C47.6739 19.2344 47.1843 17.6979 46.208 16.6103C45.2316 15.5257 43.8924 14.9805 42.1931 14.9805C41.0583 14.9805 40.0503 15.2487 39.1661 15.7881C38.2819 16.3275 37.5965 17.0943 37.1155 18.0915C36.6316 19.0886 36.3926 20.2199 36.3926 21.4824V21.8089C36.3926 23.6925 36.9657 25.2028 38.1091 26.3341C39.2554 27.4653 40.7387 28.031 42.5618 28.031C43.5957 28.031 44.5375 27.8298 45.3871 27.4333ZM40.5774 18.3685C40.9863 17.9165 41.522 17.692 42.1816 17.692C42.8872 17.692 43.4316 17.8961 43.8146 18.3043C44.1977 18.7125 44.3964 19.2927 44.4108 20.0391V20.3074H39.7911C39.9063 19.4648 40.1684 18.8204 40.5774 18.3685Z" fill="white"></path>
											<path class="dark" d="M52.8813 19.5639C53.273 18.7038 54.0967 18.2723 55.3524 18.2723C55.6981 18.2723 56.0955 18.3043 56.5477 18.3656L56.5938 15.1321C56.2712 15.03 55.9256 14.9805 55.5598 14.9805C54.379 14.9805 53.4573 15.5578 52.7891 16.7124L52.697 15.2108H49.5605V27.7977H52.8813V19.561V19.5639Z" fill="white"></path>
										</svg>