<svg width="600" height="634" viewBox="0 0 600 634" fill="none" xmlns="http://www.w3.org/2000/svg">
<path d="M453.333 74C436.667 64 416.667 70.6666 406.667 87.3333C396.667 104 403.333 124 420 134C490 177.333 536.667 254 536.667 334C536.667 464 433.333 567.333 303.333 567.333C173.333 567.333 70 464 70 334C70 250.667 116.667 174 186.667 130.667C200 120.667 206.667 100.667 196.667 87.3333C186.667 70.6666 166.667 64 150 74C56.6667 127.333 0 227.333 0 334C0 500.667 133.333 634 300 634C466.667 634 600 500.667 600 334C600 227.333 543.333 130.667 453.333 74Z" fill="white"/>
<path d="M300 367.333C320 367.333 333.333 354 333.333 334V34.0001C333.333 14.0001 320 0.666748 300 0.666748C280 0.666748 266.667 14.0001 266.667 34.0001V334C266.667 354 280 367.333 300 367.333Z" fill="white"/>
</svg>
