<svg width="19" height="21" viewBox="0 0 19 21" fill="none" xmlns="http://www.w3.org/2000/svg">
<path d="M9.07002 1.75714C8.71599 1.75714 8.36543 1.82532 8.03835 1.95777C7.71128 2.09023 7.41409 2.28438 7.16375 2.52913C6.91342 2.77387 6.71484 3.06443 6.57936 3.38421C6.44388 3.70399 6.37415 4.04673 6.37415 4.39286C6.37415 4.73898 6.44388 5.08172 6.57936 5.4015C6.71484 5.72128 6.91342 6.01184 7.16375 6.25659C7.41409 6.50134 7.71128 6.69548 8.03835 6.82794C8.36543 6.9604 8.71599 7.02857 9.07002 7.02857C9.78501 7.02857 10.4707 6.75088 10.9763 6.25659C11.4819 5.7623 11.7659 5.09189 11.7659 4.39286C11.7659 3.69382 11.4819 3.02342 10.9763 2.52913C10.4707 2.03483 9.78501 1.75714 9.07002 1.75714ZM4.5769 4.39286C4.5769 3.2278 5.05029 2.11046 5.89291 1.28664C6.73553 0.462818 7.87837 0 9.07002 0C10.2617 0 11.4045 0.462818 12.2471 1.28664C13.0898 2.11046 13.5631 3.2278 13.5631 4.39286C13.5631 5.55792 13.0898 6.67526 12.2471 7.49908C11.4045 8.3229 10.2617 8.78571 9.07002 8.78571C7.87837 8.78571 6.73553 8.3229 5.89291 7.49908C5.05029 6.67526 4.5769 5.55792 4.5769 4.39286ZM5.85175 11.2094C6.00991 11.3242 6.2136 11.4589 6.45682 11.5925C7.07148 11.9322 7.9725 12.2836 9.06882 12.2836C10.1651 12.2836 11.0674 11.9322 11.682 11.5925C11.9252 11.4589 12.1289 11.3242 12.2871 11.2094C12.5123 11.268 12.7356 11.3328 12.9569 11.4039L14.1071 11.7729C14.9698 12.0505 15.6216 12.7241 15.854 13.5569L16.3297 16.9119C16.4196 17.5492 16.0781 18.0119 15.6036 18.122C14.3491 18.4149 12.2344 18.7429 9.07002 18.7429C5.90567 18.7429 3.78971 18.4149 2.53523 18.122C2.06196 18.0119 1.72048 17.5492 1.80915 16.9119L2.28482 13.5569C2.40301 13.1416 2.62449 12.7614 2.92951 12.4501C3.23453 12.1388 3.61361 11.9061 4.03294 11.7729L5.18318 11.4039C5.40364 11.3336 5.6265 11.2688 5.85175 11.2094ZM6.70245 9.62211L6.35378 9.28591L5.87212 9.39369C5.45196 9.4874 5.035 9.60103 4.62124 9.73457L3.471 10.1036C2.75644 10.3307 2.11219 10.7307 1.59813 11.2664C1.08407 11.8022 0.71689 12.4563 0.530707 13.168L0.518726 13.2149L0.0298749 16.6706C-0.163029 18.0341 0.583426 19.4738 2.11947 19.8311C3.52132 20.1579 5.77627 20.5 9.06882 20.5C12.3626 20.5 14.6175 20.1579 16.0194 19.8323C17.5554 19.4738 18.3031 18.0341 18.1102 16.6718L17.6201 13.2161L17.6081 13.1692C17.422 12.4572 17.0547 11.8027 16.5404 11.2667C16.0262 10.7307 15.3816 10.3306 14.6666 10.1036L13.5176 9.73457C13.1046 9.60181 12.6877 9.48857 12.2667 9.39486L11.7851 9.28591L11.4376 9.62094L11.4364 9.62211C11.3901 9.66337 11.3421 9.70284 11.2926 9.74043C11.1381 9.86042 10.9738 9.96777 10.8014 10.0614C10.2746 10.359 9.67838 10.5192 9.07002 10.5265C8.46166 10.5192 7.86543 10.359 7.33867 10.0614C7.11231 9.9364 6.89834 9.78921 6.70245 9.62211Z" fill="black"/>
</svg>
