<svg width="20" height="20" viewBox="0 0 20 20" fill="none" xmlns="http://www.w3.org/2000/svg">
<path d="M17.1862 0.639687L17.376 0.449965C17.5188 0.30725 17.6883 0.194058 17.8748 0.116853C18.0613 0.0396475 18.2613 -5.90526e-05 18.4631 6.59182e-08C18.665 5.91844e-05 18.8649 0.0398828 19.0514 0.117197C19.2379 0.194512 19.4073 0.307803 19.55 0.450602C19.6928 0.593401 19.8059 0.762912 19.8832 0.949457C19.9604 1.136 20.0001 1.33593 20 1.53781C19.9999 1.7397 19.9601 1.93961 19.8828 2.1261C19.8055 2.3126 19.6922 2.48205 19.5494 2.62476L19.3597 2.81321C19.6842 3.1772 19.8572 3.65155 19.8433 4.13901C19.8293 4.62648 19.6294 5.09013 19.2846 5.43494L6.18017 18.541C6.09825 18.6225 5.9957 18.6802 5.8835 18.7078L0.790461 19.9811C0.683879 20.0077 0.572244 20.0062 0.466407 19.9768C0.36057 19.9475 0.264131 19.8912 0.186465 19.8135C0.108799 19.7359 0.0525477 19.6394 0.0231794 19.5336C-0.0061889 19.4277 -0.0076753 19.3161 0.0188647 19.2095L1.29213 14.1163C1.31998 14.0046 1.37763 13.9025 1.45892 13.8209L13.7357 1.54373C13.6129 1.45731 13.4635 1.41707 13.314 1.43012C13.1644 1.44317 13.0242 1.50866 12.9183 1.61504L8.7267 5.80802C8.6675 5.86721 8.59723 5.91417 8.5199 5.9462C8.44256 5.97824 8.35967 5.99472 8.27596 5.99472C8.19225 5.99472 8.10936 5.97824 8.03203 5.9462C7.95469 5.91417 7.88442 5.86721 7.82523 5.80802C7.76604 5.74882 7.71908 5.67855 7.68705 5.60121C7.65501 5.52387 7.63853 5.44098 7.63853 5.35727C7.63853 5.27356 7.65501 5.19067 7.68705 5.11333C7.71908 5.03599 7.76604 4.96571 7.82523 4.90652L12.0193 0.714812C12.3644 0.369767 12.8284 0.169866 13.3161 0.156132C13.8039 0.142399 14.2784 0.315876 14.6423 0.640961C14.9921 0.328287 15.4448 0.155339 15.914 0.155104C16.3832 0.154869 16.8361 0.327364 17.1862 0.639687ZM16.3663 1.61504C16.2469 1.49568 16.085 1.42863 15.9162 1.42863C15.7474 1.42863 15.5855 1.49568 15.4661 1.61504L2.48262 14.5963L1.50985 18.4888L5.40221 17.516L18.3857 4.53472C18.4449 4.47558 18.492 4.40532 18.5241 4.32797C18.5562 4.25063 18.5727 4.16771 18.5727 4.08397C18.5727 4.00023 18.5562 3.91731 18.5241 3.83996C18.492 3.76261 18.4449 3.69236 18.3857 3.63322L16.3663 1.61504Z" fill="black"/>
</svg>
