<svg width="718" height="718" viewBox="0 0 718 718" fill="none" xmlns="http://www.w3.org/2000/svg">
<path fill-rule="evenodd" clip-rule="evenodd" d="M359 50.6667C188.713 50.6667 50.667 188.712 50.667 359C50.667 529.287 188.713 667.333 359 667.333C529.287 667.333 667.334 529.287 667.334 359C667.334 188.712 529.287 50.6667 359 50.6667ZM0.666992 359C0.666992 161.098 161.098 0.666748 359 0.666748C556.904 0.666748 717.334 161.098 717.334 359C717.334 556.903 556.904 717.333 359 717.333C161.098 717.333 0.666992 556.903 0.666992 359ZM359 217.333C338.29 217.333 321.5 234.123 321.5 254.833C321.5 268.64 310.307 279.833 296.5 279.833C282.693 279.833 271.5 268.64 271.5 254.833C271.5 206.508 310.677 167.333 359 167.333C407.324 167.333 446.5 206.508 446.5 254.833C446.5 286.945 429.187 314.987 403.51 330.18C396.95 334.06 391.537 338.297 388.01 342.453C384.584 346.487 384 349.12 384 350.667V392.333C384 406.14 372.807 417.333 359 417.333C345.194 417.333 334 406.14 334 392.333V350.667C334 333.803 341.384 320.12 349.887 310.1C358.287 300.2 368.764 292.64 378.05 287.146C389.147 280.58 396.5 268.552 396.5 254.833C396.5 234.123 379.71 217.333 359 217.333ZM359 525.667C377.41 525.667 392.334 510.743 392.334 492.333C392.334 473.923 377.41 459 359 459C340.59 459 325.667 473.923 325.667 492.333C325.667 510.743 340.59 525.667 359 525.667Z" fill="white"/>
</svg>
