<svg width="16" height="20" viewBox="0 0 16 20" fill="none" xmlns="http://www.w3.org/2000/svg">
<path d="M4 11.25C4.35362 11.25 4.69276 11.1183 4.94281 10.8839C5.19286 10.6495 5.33333 10.3315 5.33333 10C5.33333 9.66848 5.19286 9.35054 4.94281 9.11612C4.69276 8.8817 4.35362 8.75 4 8.75C3.64638 8.75 3.30724 8.8817 3.05719 9.11612C2.80714 9.35054 2.66667 9.66848 2.66667 10C2.66667 10.3315 2.80714 10.6495 3.05719 10.8839C3.30724 11.1183 3.64638 11.25 4 11.25ZM0 2.5C0 1.83696 0.280951 1.20107 0.781048 0.732233C1.28115 0.263392 1.95942 0 2.66667 0H13.3333C14.0406 0 14.7189 0.263392 15.219 0.732233C15.719 1.20107 16 1.83696 16 2.5V17.5C16 18.163 15.719 18.7989 15.219 19.2678C14.7189 19.7366 14.0406 20 13.3333 20H2.66667C1.95942 20 1.28115 19.7366 0.781048 19.2678C0.280951 18.7989 0 18.163 0 17.5V2.5ZM2.66667 18.75H13.3333C13.687 18.75 14.0261 18.6183 14.2761 18.3839C14.5262 18.1495 14.6667 17.8315 14.6667 17.5V2.5C14.6667 2.16848 14.5262 1.85054 14.2761 1.61612C14.0261 1.3817 13.687 1.25 13.3333 1.25H2.66667C2.31304 1.25 1.97391 1.3817 1.72386 1.61612C1.47381 1.85054 1.33333 2.16848 1.33333 2.5V17.5C1.33333 17.8315 1.47381 18.1495 1.72386 18.3839C1.97391 18.6183 2.31304 18.75 2.66667 18.75Z" fill="black"/>
</svg>
