<svg width="20" height="20" viewBox="0 0 20 20" fill="none" xmlns="http://www.w3.org/2000/svg">
<path d="M11.1152 17.1342C11.586 17.0616 12.0677 17.1422 12.4891 17.3641C13.1709 17.7225 13.9494 17.8535 14.7108 17.7378C15.4723 17.6222 16.1768 17.2661 16.7215 16.7215C17.2661 16.1768 17.6222 15.4723 17.7378 14.7108C17.8535 13.9494 17.7225 13.1709 17.3641 12.4891C17.1422 12.0677 17.0616 11.586 17.1342 11.1152C17.1912 10.7486 17.2197 10.3769 17.2197 10C17.2199 8.95749 16.9943 7.92731 16.5584 6.9803C16.1226 6.03329 15.4868 5.1919 14.6948 4.51399C13.9028 3.83608 12.9733 3.33774 11.9704 3.05322C10.9675 2.7687 9.91482 2.70475 8.88483 2.86578C8.41403 2.93844 7.93235 2.85784 7.51085 2.63586C6.82901 2.27719 6.0503 2.14608 5.2886 2.2617C4.5269 2.37731 3.82216 2.73358 3.27745 3.27842C2.73274 3.82325 2.37663 4.52807 2.26119 5.28979C2.14575 6.05152 2.27704 6.8302 2.63586 7.51197C2.85784 7.93346 2.93844 8.41514 2.86578 8.88594C2.80802 9.251 2.77914 9.62235 2.77914 10C2.77898 11.0425 3.00459 12.0727 3.44047 13.0197C3.87634 13.9667 4.51213 14.8081 5.30413 15.486C6.09613 16.1639 7.02555 16.6623 8.02848 16.9468C9.03141 17.2313 10.0841 17.2952 11.1141 17.1342M10 19.4412C8.63698 19.4415 7.29006 19.1466 6.05183 18.5768C4.81359 18.0071 3.7134 17.176 2.82688 16.1406C1.94036 15.1053 1.28852 13.8903 0.916176 12.5791C0.543829 11.2679 0.459801 9.89168 0.669867 8.54494C0.0908795 7.44367 -0.120689 6.18607 0.0660844 4.95597C0.252858 3.72586 0.828181 2.58775 1.70796 1.70796C2.58775 0.828181 3.72586 0.252858 4.95597 0.0660844C6.18607 -0.120689 7.44367 0.0908793 8.54494 0.669867C9.02034 0.595818 9.50536 0.558794 10 0.558794C11.363 0.558545 12.7099 0.853428 13.9482 1.42318C15.1864 1.99292 16.2866 2.82403 17.1731 3.85936C18.0596 4.89469 18.7115 6.1097 19.0838 7.42088C19.4562 8.73206 19.5402 10.1083 19.3301 11.4551C19.9091 12.5563 20.1207 13.8139 19.9339 15.044C19.7471 16.2741 19.1718 17.4123 18.292 18.292C17.4123 19.1718 16.2741 19.7471 15.044 19.9339C13.8139 20.1207 12.5563 19.9091 11.4551 19.3301C10.9797 19.4042 10.4946 19.4412 10 19.4412ZM10.0589 15.5537C6.9466 15.5537 5.55597 14.0208 5.55597 12.8723C5.55597 12.2814 5.98915 11.8705 6.58673 11.8705C7.9196 11.8705 7.57195 13.7865 10.0578 13.7865C11.3273 13.7865 12.0304 13.0934 12.0304 12.3858C12.0304 11.9593 11.8216 11.4884 10.983 11.2807L8.21728 10.5876C5.98915 10.0278 5.58485 8.81929 5.58485 7.68635C5.58596 5.3316 7.79853 4.44635 9.87671 4.44635C11.7872 4.44635 14.0475 5.50821 14.0475 6.92106C14.0475 7.5264 13.5155 7.87962 12.9246 7.87962C11.7883 7.87962 11.9971 6.3046 9.70344 6.3046C8.56716 6.3046 7.93071 6.81776 7.93071 7.55528C7.93071 8.29281 8.82263 8.52828 9.59903 8.70489L11.6383 9.15918C13.8753 9.66123 14.4418 10.973 14.4418 12.2092C14.4418 14.1241 12.9701 15.5537 10.0156 15.5537H10.0589Z" fill="black"/>
</svg>
